HIERARCHY
ROOT mixamorig:Hips
{
	OFFSET 0.000000 77.714516 0.000000
	CHANNELS 6 Xposition Yposition Zposition Xrotation Yrotation Zrotation
	JOINT mixamorig:Spine
	{
		OFFSET 0.000000 14.685699 -1.734700
		CHANNELS 3 Xrotation Yrotation Zrotation
		JOINT mixamorig:Spine1
		{
			OFFSET 0.000000 17.133286 -2.023825
			CHANNELS 3 Xrotation Yrotation Zrotation
			JOINT mixamorig:Spine2
			{
				OFFSET 0.000000 19.580956 -2.312950
				CHANNELS 3 Xrotation Yrotation Zrotation
				JOINT mixamorig:Neck
				{
					OFFSET 0.000000 22.028564 -2.602067
					CHANNELS 3 Xrotation Yrotation Zrotation
					JOINT mixamorig:Head
					{
						OFFSET 0.000000 7.772293 1.167700
						CHANNELS 3 Xrotation Yrotation Zrotation
						JOINT mixamorig:HeadTop_End
						{
							OFFSET 0.000000 26.518204 3.983900
							CHANNELS 3 Xrotation Yrotation Zrotation
							End Site
							{
								OFFSET 0.000000 26.815781 0.000000
							}
						}
					}
				}
				JOINT mixamorig:LeftShoulder
				{
					OFFSET 11.646600 18.513336 -2.583780
					CHANNELS 3 Xrotation Yrotation Zrotation
					JOINT mixamorig:LeftArm
					{
						OFFSET 23.544209 -6.614426 0.036475
						CHANNELS 3 Xrotation Yrotation Zrotation
						JOINT mixamorig:LeftForeArm
						{
							OFFSET 22.756695 0.000000 -0.000001
							CHANNELS 3 Xrotation Yrotation Zrotation
							JOINT mixamorig:LeftHand
							{
								OFFSET 32.238304 0.000000 -0.000001
								CHANNELS 3 Xrotation Yrotation Zrotation
								JOINT mixamorig:LeftHandThumb1
								{
									OFFSET 4.391930 -2.771759 4.066533
									CHANNELS 3 Xrotation Yrotation Zrotation
									JOINT mixamorig:LeftHandThumb2
									{
										OFFSET 4.087418 -2.359879 2.359871
										CHANNELS 3 Xrotation Yrotation Zrotation
										JOINT mixamorig:LeftHandThumb3
										{
											OFFSET 4.044945 -2.335342 2.335349
											CHANNELS 3 Xrotation Yrotation Zrotation
											JOINT mixamorig:LeftHandThumb4
											{
												OFFSET 3.242561 -1.872101 1.872095
												CHANNELS 3 Xrotation Yrotation Zrotation
												End Site
												{
													OFFSET 2.876892 -1.863678 2.402885
												}
											}
										}
									}
								}
								JOINT mixamorig:LeftHandIndex1
								{
									OFFSET 13.080666 -0.495590 3.860911
									CHANNELS 3 Xrotation Yrotation Zrotation
									JOINT mixamorig:LeftHandIndex2
									{
										OFFSET 4.467804 0.000000 0.000000
										CHANNELS 3 Xrotation Yrotation Zrotation
										JOINT mixamorig:LeftHandIndex3
										{
											OFFSET 4.434097 0.000000 0.000000
											CHANNELS 3 Xrotation Yrotation Zrotation
											JOINT mixamorig:LeftHandIndex4
											{
												OFFSET 3.589699 0.000000 0.000000
												CHANNELS 3 Xrotation Yrotation Zrotation
												End Site
												{
													OFFSET 3.589706 0.000000 0.000200
												}
											}
										}
									}
								}
								JOINT mixamorig:LeftHandMiddle1
								{
									OFFSET 12.178093 0.000000 0.000000
									CHANNELS 3 Xrotation Yrotation Zrotation
									JOINT mixamorig:LeftHandMiddle2
									{
										OFFSET 5.491508 0.000000 0.000000
										CHANNELS 3 Xrotation Yrotation Zrotation
										JOINT mixamorig:LeftHandMiddle3
										{
											OFFSET 5.202805 0.000000 0.000000
											CHANNELS 3 Xrotation Yrotation Zrotation
											JOINT mixamorig:LeftHandMiddle4
											{
												OFFSET 4.456505 0.000000 0.000000
												CHANNELS 3 Xrotation Yrotation Zrotation
												End Site
												{
													OFFSET 4.456505 -0.000046 0.006499
												}
											}
										}
									}
								}
								JOINT mixamorig:LeftHandRing1
								{
									OFFSET 11.850945 -0.053970 -3.835439
									CHANNELS 3 Xrotation Yrotation Zrotation
									JOINT mixamorig:LeftHandRing2
									{
										OFFSET 4.691414 0.000000 0.000000
										CHANNELS 3 Xrotation Yrotation Zrotation
										JOINT mixamorig:LeftHandRing3
										{
											OFFSET 4.518303 0.000000 0.000000
											CHANNELS 3 Xrotation Yrotation Zrotation
											JOINT mixamorig:LeftHandRing4
											{
												OFFSET 3.568130 0.000000 0.000000
												CHANNELS 3 Xrotation Yrotation Zrotation
												End Site
												{
													OFFSET 3.568100 -0.000168 0.014599
												}
											}
										}
									}
								}
								JOINT mixamorig:LeftHandPinky1
								{
									OFFSET 10.491814 -0.458572 -7.033705
									CHANNELS 3 Xrotation Yrotation Zrotation
									JOINT mixamorig:LeftHandPinky2
									{
										OFFSET 4.452301 0.000000 0.000000
										CHANNELS 3 Xrotation Yrotation Zrotation
										JOINT mixamorig:LeftHandPinky3
										{
											OFFSET 3.536598 0.000000 0.000000
											CHANNELS 3 Xrotation Yrotation Zrotation
											JOINT mixamorig:LeftHandPinky4
											{
												OFFSET 2.823502 0.000000 0.000000
												CHANNELS 3 Xrotation Yrotation Zrotation
												End Site
												{
													OFFSET 2.823502 0.000000 0.000600
												}
											}
										}
									}
								}
							}
						}
					}
				}
				JOINT mixamorig:RightShoulder
				{
					OFFSET -11.646600 18.513351 -2.620334
					CHANNELS 3 Xrotation Yrotation Zrotation
					JOINT mixamorig:RightArm
					{
						OFFSET -23.544205 -6.614441 -0.036501
						CHANNELS 3 Xrotation Yrotation Zrotation
						JOINT mixamorig:RightForeArm
						{
							OFFSET -22.759399 0.000000 0.000001
							CHANNELS 3 Xrotation Yrotation Zrotation
							JOINT mixamorig:RightHand
							{
								OFFSET -32.238106 0.000000 0.000001
								CHANNELS 3 Xrotation Yrotation Zrotation
								JOINT mixamorig:RightHandThumb1
								{
									OFFSET -4.492897 -2.767944 4.026622
									CHANNELS 3 Xrotation Yrotation Zrotation
									JOINT mixamorig:RightHandThumb2
									{
										OFFSET -4.113335 -2.374832 2.374833
										CHANNELS 3 Xrotation Yrotation Zrotation
										JOINT mixamorig:RightHandThumb3
										{
											OFFSET -4.066299 -2.347672 2.347678
											CHANNELS 3 Xrotation Yrotation Zrotation
											JOINT mixamorig:RightHandThumb4
											{
												OFFSET -3.138756 -1.812164 1.812160
												CHANNELS 3 Xrotation Yrotation Zrotation
												End Site
												{
													OFFSET -2.613274 -1.789185 2.527684
												}
											}
										}
									}
								}
								JOINT mixamorig:RightHandIndex1
								{
									OFFSET -12.930191 -0.141510 3.700550
									CHANNELS 3 Xrotation Yrotation Zrotation
									JOINT mixamorig:RightHandIndex2
									{
										OFFSET -4.764015 0.000000 0.000000
										CHANNELS 3 Xrotation Yrotation Zrotation
										JOINT mixamorig:RightHandIndex3
										{
											OFFSET -4.419807 0.000000 0.000000
											CHANNELS 3 Xrotation Yrotation Zrotation
											JOINT mixamorig:RightHandIndex4
											{
												OFFSET -3.701851 0.000000 0.000000
												CHANNELS 3 Xrotation Yrotation Zrotation
												End Site
												{
													OFFSET -3.701797 0.000153 -0.018699
												}
											}
										}
									}
								}
								JOINT mixamorig:RightHandMiddle1
								{
									OFFSET -12.168388 0.000000 0.000001
									CHANNELS 3 Xrotation Yrotation Zrotation
									JOINT mixamorig:RightHandMiddle2
									{
										OFFSET -5.385834 0.000000 0.000000
										CHANNELS 3 Xrotation Yrotation Zrotation
										JOINT mixamorig:RightHandMiddle3
										{
											OFFSET -5.321609 0.000000 0.000000
											CHANNELS 3 Xrotation Yrotation Zrotation
											JOINT mixamorig:RightHandMiddle4
											{
												OFFSET -4.501015 0.000000 0.000000
												CHANNELS 3 Xrotation Yrotation Zrotation
												End Site
												{
													OFFSET -4.500992 -0.000168 0.011299
												}
											}
										}
									}
								}
								JOINT mixamorig:RightHandRing1
								{
									OFFSET -11.815239 0.302551 -3.905540
									CHANNELS 3 Xrotation Yrotation Zrotation
									JOINT mixamorig:RightHandRing2
									{
										OFFSET -4.583313 0.000000 0.000000
										CHANNELS 3 Xrotation Yrotation Zrotation
										JOINT mixamorig:RightHandRing3
										{
											OFFSET -4.612907 0.000000 0.000000
											CHANNELS 3 Xrotation Yrotation Zrotation
											JOINT mixamorig:RightHandRing4
											{
												OFFSET -3.358940 0.000000 0.000000
												CHANNELS 3 Xrotation Yrotation Zrotation
												End Site
												{
													OFFSET -3.358910 -0.000198 0.016799
												}
											}
										}
									}
								}
								JOINT mixamorig:RightHandPinky1
								{
									OFFSET -10.511444 -0.263382 -6.996516
									CHANNELS 3 Xrotation Yrotation Zrotation
									JOINT mixamorig:RightHandPinky2
									{
										OFFSET -4.477509 0.000000 0.000000
										CHANNELS 3 Xrotation Yrotation Zrotation
										JOINT mixamorig:RightHandPinky3
										{
											OFFSET -3.497902 0.000000 0.000000
											CHANNELS 3 Xrotation Yrotation Zrotation
											JOINT mixamorig:RightHandPinky4
											{
												OFFSET -2.797302 0.000000 0.000000
												CHANNELS 3 Xrotation Yrotation Zrotation
												End Site
												{
													OFFSET -2.797302 -0.000031 0.002200
												}
											}
										}
									}
								}
							}
						}
					}
				}
			}
		}
	}
	JOINT mixamorig:LeftUpLeg
	{
		OFFSET 13.580900 -8.149200 -1.796100
		CHANNELS 3 Xrotation Yrotation Zrotation
		JOINT mixamorig:LeftLeg
		{
			OFFSET 1.779603 -35.946629 -2.676069
			CHANNELS 3 Xrotation Yrotation Zrotation
			JOINT mixamorig:LeftFoot
			{
				OFFSET -1.779600 -26.652353 -2.057156
				CHANNELS 3 Xrotation Yrotation Zrotation
				JOINT mixamorig:LeftToeBase
				{
					OFFSET -1.192457 -6.581663 13.403625
					CHANNELS 3 Xrotation Yrotation Zrotation
					JOINT mixamorig:LeftToe_End
					{
						OFFSET -0.351332 -0.163919 5.937958
						CHANNELS 3 Xrotation Yrotation Zrotation
						End Site
						{
							OFFSET -0.351332 -0.163919 5.937958
						}
					}
				}
			}
		}
	}
	JOINT mixamorig:RightUpLeg
	{
		OFFSET -13.580900 -8.149200 -2.255300
		CHANNELS 3 Xrotation Yrotation Zrotation
		JOINT mixamorig:RightLeg
		{
			OFFSET -1.779582 -35.946686 -2.316831
			CHANNELS 3 Xrotation Yrotation Zrotation
			JOINT mixamorig:RightFoot
			{
				OFFSET 1.779588 -26.652205 -2.090130
				CHANNELS 3 Xrotation Yrotation Zrotation
				JOINT mixamorig:RightToeBase
				{
					OFFSET 1.192391 -6.582412 13.372187
					CHANNELS 3 Xrotation Yrotation Zrotation
					JOINT mixamorig:RightToe_End
					{
						OFFSET 0.351304 -0.164246 5.913598
						CHANNELS 3 Xrotation Yrotation Zrotation
						End Site
						{
							OFFSET 0.351304 -0.164246 5.913598
						}
					}
				}
			}
		}
	}
}
MOTION
Frames: 5
Frame Time: 0.016667
-8.310409 79.964462 -7.115270 5.725503 -7.187568 2.142517 11.730484 3.844790 1.946992 2.136635 0.564558 -0.402173 2.133625 0.538858 -0.401992 4.167978 -0.549673 -0.814874 9.857785 -3.288565 -2.670094 -0.000001 -0.000000 0.000000 1.021475 -7.973747 2.581415 29.255906 -35.262576 -57.995669 0.000039 -39.493858 0.000027 13.792015 -3.799733 -5.174162 -1.540036 3.690184 6.142362 3.939063 7.948701 0.746818 -0.579467 1.574993 2.538698 0.000001 -0.000002 -0.000000 0.321199 2.082338 -17.534931 0.554896 2.712690 -23.117308 0.363441 2.211498 -18.662623 0.000001 0.000001 -0.000003 0.067576 0.964293 -8.017403 0.785509 3.198758 -27.587196 0.363433 2.211496 -18.662611 0.000000 0.000001 0.000000 0.184363 1.585773 -13.261620 0.663334 2.953517 -25.310801 0.363434 2.211489 -18.662613 -0.000001 -0.000002 0.000001 0.610506 4.973416 -7.463068 0.657431 -1.134316 -25.518196 0.363424 2.211488 -18.662616 0.000001 0.000001 -0.000001 0.710010 4.995823 -4.009078 -7.646958 25.492843 43.028993 0.000030 62.678419 -0.000032 11.181184 5.742505 -6.072326 -1.849260 -3.581785 -6.586143 4.637192 -8.634127 -0.225388 -1.273757 0.137306 -2.094881 -0.000003 0.000004 0.000007 0.041670 -0.761727 6.263251 0.227046 -1.765725 14.652699 0.041675 -0.761723 6.263258 0.000000 0.000001 -0.000000 0.041671 -0.761728 6.263257 0.227043 -1.765723 14.652696 0.041679 -0.761716 6.263263 -0.000001 -0.000001 0.000000 0.041673 -0.761728 6.263254 0.227042 -1.765730 14.652707 0.041685 -0.761720 6.263245 -0.000001 -0.000000 -0.000001 0.041671 -0.761728 6.263254 0.227043 -1.765723 14.652697 0.041681 -0.761720 6.263260 -0.000000 -0.000001 -0.000002 -34.457300 17.816414 1.595932 33.883838 6.419851 -3.625186 -4.994779 -2.600075 -1.100980 -6.784445 -0.000007 -0.000001 -0.000000 -0.000000 0.000001 -12.434869 -2.127557 -0.649429 21.899945 -9.472344 -3.376904 -0.189315 11.651177 3.444925 -14.027331 0.026497 -1.273283 0.000000 -0.000000 -0.000000 
-8.606651 79.239815 -6.864724 5.249173 -6.482475 1.524163 10.946163 3.880957 2.326706 2.242486 0.566601 -0.316925 2.239483 0.540212 -0.314408 4.357834 -0.614983 -1.244127 10.683021 -4.220901 -2.509749 -0.000001 0.000000 -0.000000 1.058051 -8.143080 3.011282 29.677606 -33.731610 -59.601836 -0.000000 -44.245180 0.000001 15.426435 -3.692228 -5.093783 -1.540049 3.690166 6.142349 3.939062 7.948713 0.746837 -0.579472 1.574995 2.538693 0.000001 0.000003 0.000003 0.352633 2.179324 -18.381081 0.564396 2.734791 -23.316989 0.363135 2.210636 -18.654898 -0.000000 0.000000 -0.000002 0.075539 1.019198 -8.477060 0.782255 3.192530 -27.529035 0.363136 2.210619 -18.654927 -0.000000 -0.000001 0.000001 0.189140 1.605895 -13.433285 0.671559 2.970856 -25.470153 0.363135 2.210608 -18.654922 0.000000 0.000001 -0.000002 0.650403 5.023360 -7.920876 0.686506 -1.074175 -26.071174 0.363137 2.210620 -18.654918 -0.000000 0.000001 0.000002 0.648319 4.471222 -4.715871 -6.051049 26.494432 40.134461 -0.000009 62.012585 0.000015 10.555925 5.531265 -5.515573 -1.849255 -3.581799 -6.586136 4.637198 -8.634101 -0.225388 -1.273758 0.137291 -2.094871 -0.000003 0.000002 -0.000000 0.044623 -0.788212 6.482108 0.239031 -1.810926 15.036665 0.044630 -0.788216 6.482096 -0.000001 -0.000001 0.000000 0.044637 -0.788216 6.482102 0.239027 -1.810928 15.036663 0.044636 -0.788207 6.482112 0.000001 -0.000004 0.000001 0.044634 -0.788216 6.482110 0.239028 -1.810920 15.036656 0.044628 -0.788217 6.482107 -0.000001 0.000002 -0.000000 0.044634 -0.788216 6.482115 0.239027 -1.810923 15.036655 0.044628 -0.788211 6.482100 -0.000002 0.000001 -0.000004 -31.580414 18.228624 0.304225 22.456702 7.455545 -2.483504 -3.021819 -4.851617 -0.917467 -6.229106 -0.000010 -0.000001 -0.000001 0.000001 0.000000 -10.077192 -2.699935 -0.224702 23.196403 -8.947882 -3.258248 -3.247638 11.776368 2.123196 -15.856718 0.000001 0.000006 -0.000000 0.000000 -0.000001 
-8.874713 78.417358 -6.626735 4.627481 -5.913432 0.918783 10.290776 3.993219 2.722197 2.249691 0.582010 -0.333870 2.248525 0.553271 -0.328902 4.625058 -0.660304 -1.638077 11.320626 -5.047497 -2.164711 -0.000000 -0.000000 0.000000 1.075244 -8.132710 3.400410 29.893160 -32.154663 -61.158026 0.000019 -48.068638 0.000019 15.678291 -2.976435 -4.489440 -1.540029 3.690184 6.142344 3.939050 7.948704 0.746832 -0.579470 1.574994 2.538701 0.000000 0.000002 0.000001 0.359084 2.198562 -18.549347 0.544907 2.689213 -22.905388 0.347732 2.164497 -18.251480 -0.000000 0.000003 -0.000001 0.078041 1.035800 -8.616563 0.743100 3.116400 -26.817648 0.347733 2.164515 -18.251485 0.000001 0.000000 -0.000003 0.183712 1.583024 -13.238274 0.646037 2.916706 -24.972867 0.347738 2.164487 -18.251464 0.000000 -0.000000 0.000001 0.662272 5.038089 -8.056301 0.678958 -1.089648 -25.928628 0.347723 2.164494 -18.251481 0.000001 0.000001 0.000001 0.573268 3.893908 -5.269800 -4.457522 27.836634 37.072993 0.000010 60.417914 -0.000008 10.398783 5.760386 -4.809091 -1.849257 -3.581802 -6.586145 4.637204 -8.634122 -0.225388 -1.273766 0.137311 -2.094881 -0.000002 0.000003 0.000001 0.046710 -0.806268 6.631273 0.251910 -1.858257 15.439641 0.046716 -0.806281 6.631283 0.000000 -0.000002 0.000000 0.046708 -0.806275 6.631275 0.251922 -1.858255 15.439629 0.046714 -0.806277 6.631293 -0.000001 0.000002 -0.000001 0.046713 -0.806276 6.631271 0.251915 -1.858249 15.439643 0.046715 -0.806283 6.631274 -0.000001 0.000001 -0.000002 0.046705 -0.806271 6.631284 0.251923 -1.858253 15.439620 0.046712 -0.806285 6.631294 -0.000001 0.000002 -0.000001 -29.365288 18.667906 -0.539982 13.442442 7.453625 -1.847513 -1.839328 -5.677660 -0.850929 -6.193424 0.000006 0.000004 -0.000000 -0.000000 0.000002 -8.073511 -3.385753 0.016657 23.995402 -7.776271 -2.930850 -7.090746 11.927849 2.168894 -17.663798 0.000000 0.000007 0.000000 -0.000000 -0.000000 
-9.111976 77.551781 -6.459100 3.993192 -5.554112 0.349714 9.957168 4.271080 3.284970 2.136566 0.619873 -0.512252 2.139731 0.587452 -0.505922 4.969258 -0.726725 -1.876552 11.625600 -5.763231 -1.781477 -0.000003 -0.000000 -0.000000 1.053470 -7.853783 3.651586 29.852342 -30.999524 -62.395841 0.000031 -51.156590 0.000018 14.691677 -1.394699 -3.558504 -1.540021 3.690183 6.142355 3.939028 7.948707 0.746841 -0.579458 1.574999 2.538708 0.000001 -0.000003 0.000001 0.345897 2.158902 -18.202502 0.504748 2.592219 -22.033821 0.321786 2.084198 -17.551286 0.000000 -0.000002 -0.000001 0.076167 1.023384 -8.512298 0.679192 2.986779 -25.616971 0.321773 2.084227 -17.551290 0.000001 0.000002 0.000001 0.170920 1.527649 -12.766905 0.596543 2.808117 -23.981849 0.321787 2.084205 -17.551272 0.000000 -0.000002 -0.000004 0.652635 5.026147 -7.946342 0.644063 -1.162475 -25.260043 0.321771 2.084202 -17.551293 0.000001 0.000003 0.000001 0.479802 3.203776 -5.616003 -3.146409 29.391834 34.115562 0.000003 57.855841 -0.000001 10.735889 6.483064 -3.909220 -1.849264 -3.581799 -6.586138 4.637193 -8.634100 -0.225390 -1.273761 0.137301 -2.094874 0.000002 0.000000 -0.000000 0.048161 -0.818761 6.734398 0.267137 -1.912453 15.902017 0.048177 -0.818769 6.734399 0.000001 -0.000000 -0.000000 0.048169 -0.818766 6.734396 0.267134 -1.912450 15.902016 0.048181 -0.818765 6.734412 -0.000000 0.000001 0.000001 0.048169 -0.818768 6.734402 0.267133 -1.912446 15.902021 0.048180 -0.818776 6.734405 0.000000 0.000001 0.000000 0.048171 -0.818771 6.734397 0.267133 -1.912444 15.902026 0.048178 -0.818773 6.734395 0.000001 -0.000002 0.000004 -29.996241 18.734237 -0.216619 12.109145 6.806850 -1.937687 -4.853938 -4.854791 -1.257014 -6.063952 -0.000004 0.000007 -0.000001 -0.000001 -0.000000 -6.056295 -4.238596 0.225500 23.304319 -6.022312 -2.216827 -10.728208 11.639411 1.846960 -17.335666 -0.000001 0.000009 -0.000001 0.000000 -0.000000 
-9.314019 76.676117 -6.383048 3.459933 -5.437616 -0.167837 10.172447 4.767933 4.071696 1.882933 0.684114 -0.789187 1.892515 0.647812 -0.783853 5.269409 -0.818735 -2.016099 11.582562 -6.423500 -1.568185 0.000001 0.000000 -0.000000 0.980332 -7.263214 3.651240 29.420425 -30.546600 -63.180302 0.000025 -53.838379 0.000006 13.072769 0.602774 -2.408113 -1.540032 3.690163 6.142351 3.939058 7.948703 0.746825 -0.579467 1.575008 2.538721 -0.000000 0.000001 0.000001 0.326212 2.098118 -17.672445 0.458206 2.474204 -20.980664 0.292573 1.989567 -16.729459 -0.000002 0.000001 -0.000002 0.072822 1.000819 -8.323258 0.607992 2.833677 -24.214416 0.292567 1.989550 -16.729478 -0.000001 0.000000 0.000003 0.155836 1.459456 -12.188061 0.539713 2.676880 -22.794187 0.292583 1.989554 -16.729473 0.000003 0.000001 -0.000000 0.635539 5.004850 -7.750872 0.600129 -1.257413 -24.394226 0.292570 1.989562 -16.729469 0.000000 0.000001 0.000002 0.365640 2.367420 -5.793999 -2.390161 31.141541 31.588635 0.000010 54.364197 0.000003 11.504807 7.620248 -2.884520 -1.849253 -3.581790 -6.586133 4.637187 -8.634149 -0.225405 -1.273765 0.137310 -2.094871 0.000000 0.000006 -0.000000 0.049690 -0.831630 6.840696 0.285790 -1.976707 16.451638 0.049704 -0.831633 6.840695 0.000000 0.000000 0.000003 0.049697 -0.831634 6.840692 0.285789 -1.976706 16.451644 0.049708 -0.831625 6.840689 0.000000 0.000001 0.000001 0.049698 -0.831638 6.840695 0.285792 -1.976704 16.451641 0.049707 -0.831634 6.840691 -0.000000 0.000000 -0.000000 0.049697 -0.831629 6.840706 0.285784 -1.976705 16.451631 0.049700 -0.831631 6.840685 0.000000 -0.000001 0.000005 -32.441394 18.188027 0.472931 15.802614 5.933315 -2.121071 -9.373835 -3.177883 0.729183 -5.951087 -0.000006 0.000001 -0.000000 0.000000 0.000000 -4.724928 -5.150620 0.305612 22.891929 -4.285895 -1.017351 -14.085897 11.000966 1.181424 -14.895640 -0.000000 0.000003 -0.000000 0.000000 -0.000000 
